<svg width="17" height="21" viewBox="0 0 17 21" fill="none" xmlns="http://www.w3.org/2000/svg">
<path d="M4.89786 10.4218C5.03869 10.3693 5.19013 10.3421 5.34324 10.3416C5.49635 10.3411 5.64802 10.3674 5.78928 10.419C5.93053 10.4706 6.05852 10.5463 6.16566 10.6418C6.2728 10.7373 6.35693 10.8506 6.41306 10.9749C6.4692 11.0993 6.49621 11.2322 6.49249 11.3659C6.48878 11.4995 6.45441 11.6311 6.39143 11.7529C6.32844 11.8748 6.23812 11.9844 6.1258 12.0752C6.01347 12.166 5.88143 12.2363 5.73747 12.2818C4.97179 12.5452 4.31463 13.0037 3.8515 13.5976C3.38837 14.1915 3.14071 14.8933 3.14074 15.6118V17.3518C3.14074 17.617 3.26143 17.8714 3.47624 18.0589C3.69105 18.2465 3.9824 18.3518 4.28619 18.3518H13.4498C13.7535 18.3518 14.0449 18.2465 14.2597 18.0589C14.4745 17.8714 14.5952 17.617 14.5952 17.3518V15.7048C14.5953 14.9633 14.3373 14.2392 13.8554 13.6286C13.3734 13.018 12.6903 12.5497 11.8965 12.2858C11.7517 12.2419 11.6184 12.1731 11.5046 12.0834C11.3908 11.9937 11.2987 11.885 11.2339 11.7637C11.1691 11.6424 11.1329 11.5109 11.1274 11.3771C11.1218 11.2434 11.1471 11.11 11.2017 10.9849C11.2563 10.8598 11.3392 10.7456 11.4453 10.649C11.5514 10.5524 11.6786 10.4753 11.8195 10.4224C11.9603 10.3695 12.1119 10.3419 12.2653 10.3411C12.4186 10.3403 12.5705 10.3664 12.7121 10.4178C13.9396 10.826 14.996 11.5501 15.7414 12.4943C16.4868 13.4385 16.886 14.5581 16.8861 15.7048V17.3518C16.8861 18.1475 16.524 18.9105 15.8796 19.4731C15.2352 20.0357 14.3611 20.3518 13.4498 20.3518H4.28619C3.37482 20.3518 2.50077 20.0357 1.85633 19.4731C1.2119 18.9105 0.849854 18.1475 0.849854 17.3518L0.849854 15.6118C0.850011 14.492 1.23619 13.3981 1.95814 12.4724C2.6801 11.5468 3.70442 10.8323 4.89786 10.4218ZM8.86797 0.351807C10.0831 0.351807 11.2485 0.773234 12.1078 1.52338C12.967 2.27352 13.4498 3.29094 13.4498 4.35181V6.35181C13.4498 7.41267 12.967 8.43009 12.1078 9.18023C11.2485 9.93038 10.0831 10.3518 8.86797 10.3518C7.65281 10.3518 6.48741 9.93038 5.62816 9.18023C4.76891 8.43009 4.28619 7.41267 4.28619 6.35181V4.35181C4.28619 3.29094 4.76891 2.27352 5.62816 1.52338C6.48741 0.773234 7.65281 0.351807 8.86797 0.351807ZM8.86797 2.35181C8.26039 2.35181 7.67769 2.56252 7.24807 2.93759C6.81844 3.31267 6.57708 3.82137 6.57708 4.35181V6.35181C6.57708 6.88224 6.81844 7.39095 7.24807 7.76602C7.67769 8.14109 8.26039 8.35181 8.86797 8.35181C9.47555 8.35181 10.0583 8.14109 10.4879 7.76602C10.9175 7.39095 11.1589 6.88224 11.1589 6.35181V4.35181C11.1589 3.82137 10.9175 3.31267 10.4879 2.93759C10.0583 2.56252 9.47555 2.35181 8.86797 2.35181Z" fill="#53B175"/>
</svg>
