<svg width="16" height="16" viewBox="0 0 16 16" fill="none" xmlns="http://www.w3.org/2000/svg">
<path d="M10.1374 4.44296L2.82 11.5861L2.34151 13.1795L3.94052 12.7282L11.2822 5.5613L10.1374 4.44296ZM11.3858 3.22425L12.5306 4.3418L13.5977 3.30012C13.6736 3.22601 13.7162 3.12552 13.7162 3.02073C13.7162 2.91595 13.6736 2.81545 13.5977 2.74134L13.0245 2.18257C12.9486 2.10848 12.8456 2.06687 12.7383 2.06687C12.631 2.06687 12.528 2.10848 12.4521 2.18257L11.3866 3.22425H11.3858ZM14.1701 1.06502L14.7425 1.62379C15.122 1.99432 15.3351 2.4968 15.3351 3.02073C15.3351 3.54466 15.122 4.04714 14.7425 4.41767L4.79063 14.1334L1.37401 15.0976C1.23475 15.1368 1.08726 15.1388 0.946939 15.1034C0.80662 15.0679 0.678619 14.9964 0.576298 14.8962C0.473977 14.796 0.401088 14.6708 0.365241 14.5337C0.329394 14.3966 0.331903 14.2526 0.372506 14.1168L1.38292 10.7539L11.3089 1.06423C11.6885 0.693807 12.2032 0.485718 12.7399 0.485718C13.2766 0.485718 13.7914 0.693807 14.1709 1.06423L14.1701 1.06502Z" fill="#53B175"/>
</svg>
